<mxfile host="65bd71144e">
    <diagram id="5oqMbCYumWW3n4j47MVr" name="Page-1">
        <mxGraphModel dx="851" dy="315" grid="1" gridSize="10" guides="1" tooltips="1" connect="1" arrows="1" fold="1" page="1" pageScale="1" pageWidth="850" pageHeight="1100" math="0" shadow="0">
            <root>
                <mxCell id="0"/>
                <mxCell id="1" parent="0"/>
                <mxCell id="2" value="Kubernetes Cluster" style="rounded=1;whiteSpace=wrap;html=1;fillColor=#1ba1e2;fontColor=#ffffff;strokeColor=#006EAF;verticalAlign=top;spacing=-2;" vertex="1" parent="1">
                    <mxGeometry width="680" height="250" as="geometry"/>
                </mxCell>
                <mxCell id="37" value="&lt;font face=&quot;Helvetica&quot;&gt;Application Namespace&lt;/font&gt;" style="rounded=1;whiteSpace=wrap;html=1;fillColor=light-dark(#1BA1E2,#7F00FF);fontColor=light-dark(#FFFFFF,#FFFFFF);strokeColor=#006EAF;verticalAlign=top;spacing=-2;" vertex="1" parent="1">
                    <mxGeometry x="420" y="20" width="250" height="220" as="geometry"/>
                </mxCell>
                <mxCell id="18" value="&lt;font style=&quot;color: light-dark(rgb(0, 0, 0), rgb(0, 0, 0));&quot; face=&quot;Courier New&quot;&gt;vaultwarden&lt;/font&gt; Namespace" style="rounded=1;whiteSpace=wrap;html=1;fillColor=#76608a;fontColor=#ffffff;strokeColor=#432D57;verticalAlign=top;spacing=-2;" vertex="1" parent="1">
                    <mxGeometry x="10" y="20" width="170" height="220" as="geometry"/>
                </mxCell>
                <mxCell id="16" value="&lt;font style=&quot;color: light-dark(rgb(0, 0, 0), rgb(0, 0, 0));&quot; face=&quot;Courier New&quot;&gt;bitwarden-cli&lt;/font&gt;&lt;br&gt;pod" style="rounded=1;whiteSpace=wrap;html=1;fillColor=#008a00;fontColor=#ffffff;strokeColor=#005700;verticalAlign=top;container=0;" vertex="1" parent="1">
                    <mxGeometry x="35" y="185" width="120" height="40" as="geometry"/>
                </mxCell>
                <mxCell id="3" value="vaultwarden pod" style="rounded=1;whiteSpace=wrap;html=1;fillColor=#008a00;fontColor=#ffffff;strokeColor=#005700;verticalAlign=top;spacing=-2;" vertex="1" parent="1">
                    <mxGeometry x="20" y="40" width="150" height="130" as="geometry"/>
                </mxCell>
                <mxCell id="5" value="secretA" style="rounded=1;whiteSpace=wrap;html=1;fillColor=#647687;fontColor=#ffffff;strokeColor=#314354;verticalAlign=top;" vertex="1" parent="1">
                    <mxGeometry x="30" y="60" width="130" height="100" as="geometry"/>
                </mxCell>
                <mxCell id="6" value="&lt;font style=&quot;&quot;&gt;&lt;font style=&quot;color: light-dark(rgb(0, 0, 0), rgb(0, 0, 0));&quot;&gt;username:&amp;nbsp;&lt;/font&gt;&lt;font style=&quot;color: light-dark(rgb(0, 0, 0), rgb(0, 0, 0)); scrollbar-color: rgb(75, 75, 75) rgb(27, 29, 30);&quot; face=&quot;Courier New&quot;&gt;admin&lt;/font&gt;&lt;br style=&quot;scrollbar-color: rgb(75, 75, 75) rgb(27, 29, 30);&quot;&gt;&lt;span style=&quot;color: light-dark(rgb(0, 0, 0), rgb(0, 0, 0));&quot;&gt;password:&lt;/span&gt;&lt;font style=&quot;scrollbar-color: rgb(75, 75, 75) rgb(27, 29, 30);&quot;&gt;&lt;font style=&quot;scrollbar-color: rgb(75, 75, 75) rgb(27, 29, 30);&quot; face=&quot;Courier New&quot;&gt;&lt;font style=&quot;color: light-dark(rgb(0, 0, 0), rgb(0, 0, 0));&quot;&gt;&amp;nbsp;&lt;/font&gt;&lt;font style=&quot;scrollbar-color: rgb(75, 75, 75) rgb(27, 29, 30); color: light-dark(rgb(0, 0, 0), rgb(0, 0, 0));&quot;&gt;p@ssw0rd!&lt;/font&gt;&lt;/font&gt;&lt;font style=&quot;scrollbar-color: rgb(75, 75, 75) rgb(27, 29, 30);&quot;&gt;&lt;br style=&quot;scrollbar-color: rgb(75, 75, 75) rgb(27, 29, 30);&quot;&gt;&lt;font style=&quot;scrollbar-color: rgb(75, 75, 75) rgb(27, 29, 30); color: light-dark(rgb(0, 0, 0), rgb(0, 0, 0));&quot; face=&quot;Helvetica&quot;&gt;url:&lt;/font&gt;&lt;/font&gt;&lt;/font&gt;&lt;font style=&quot;scrollbar-color: rgb(75, 75, 75) rgb(27, 29, 30); color: light-dark(rgb(0, 0, 0), rgb(0, 0, 0));&quot; face=&quot;Courier New&quot;&gt;&amp;nbsp;&lt;/font&gt;&lt;font style=&quot;color: light-dark(rgb(0, 0, 0), rgb(0, 0, 0)); scrollbar-color: rgb(75, 75, 75) rgb(27, 29, 30);&quot; face=&quot;Courier New&quot;&gt;my.domain.tld&lt;/font&gt;&lt;/font&gt;&lt;div&gt;&lt;font style=&quot;&quot;&gt;&lt;font style=&quot;scrollbar-color: rgb(75, 75, 75) rgb(27, 29, 30);&quot; face=&quot;Courier New&quot;&gt;&lt;span style=&quot;font-family: Helvetica; color: rgb(0, 0, 0);&quot;&gt;&lt;font style=&quot;color: light-dark(rgb(0, 0, 0), rgb(0, 0, 0));&quot;&gt;id:&lt;/font&gt;&lt;/span&gt;&lt;span style=&quot;color: rgb(0, 0, 0); font-family: Helvetica;&quot;&gt;&amp;nbsp;&lt;/span&gt;&lt;font style=&quot;scrollbar-color: rgb(75, 75, 75) rgb(27, 29, 30); color: light-dark(rgb(0, 0, 0), rgb(102, 51, 0));&quot; face=&quot;Courier New&quot;&gt;aaaabbbb-cc...&lt;/font&gt;&lt;/font&gt;&lt;/font&gt;&lt;/div&gt;" style="text;html=1;align=left;verticalAlign=middle;whiteSpace=wrap;rounded=0;fontColor=light-dark(#000000,#000000);" vertex="1" parent="1">
                    <mxGeometry x="30" y="110" width="60" height="30" as="geometry"/>
                </mxCell>
                <mxCell id="4" value="" style="aspect=fixed;sketch=0;html=1;dashed=0;whitespace=wrap;verticalLabelPosition=bottom;verticalAlign=top;fillColor=#2875E2;strokeColor=#ffffff;points=[[0.005,0.63,0],[0.1,0.2,0],[0.9,0.2,0],[0.5,0,0],[0.995,0.63,0],[0.72,0.99,0],[0.5,1,0],[0.28,0.99,0]];shape=mxgraph.kubernetes.icon2;prIcon=secret" vertex="1" parent="1">
                    <mxGeometry x="40" y="70" width="30" height="28.8" as="geometry"/>
                </mxCell>
                <mxCell id="19" style="edgeStyle=none;html=1;exitX=0.5;exitY=0;exitDx=0;exitDy=0;entryX=0.5;entryY=1;entryDx=0;entryDy=0;startArrow=classic;startFill=1;strokeColor=light-dark(#000000,#000000);endArrow=none;endFill=0;" edge="1" parent="1" source="16" target="5">
                    <mxGeometry relative="1" as="geometry"/>
                </mxCell>
                <mxCell id="21" value="&lt;font style=&quot;color: light-dark(rgb(0, 0, 0), rgb(0, 0, 0));&quot; face=&quot;Courier New&quot;&gt;external-secrets&lt;/font&gt; Namespace" style="rounded=1;whiteSpace=wrap;html=1;fillColor=#6d8764;fontColor=#ffffff;strokeColor=#3A5431;verticalAlign=top;spacing=-2;" vertex="1" parent="1">
                    <mxGeometry x="190" y="20" width="220" height="220" as="geometry"/>
                </mxCell>
                <mxCell id="11" value="secretA&lt;br&gt;&lt;font style=&quot;color: light-dark(rgb(0, 0, 0), rgb(0, 0, 0));&quot; face=&quot;Courier New&quot;&gt;ExternalSecret&lt;/font&gt; resource" style="rounded=1;whiteSpace=wrap;html=1;fillColor=#647687;fontColor=#ffffff;strokeColor=#314354;verticalAlign=top;container=0;" vertex="1" parent="1">
                    <mxGeometry x="430" y="40" width="120" height="80" as="geometry"/>
                </mxCell>
                <mxCell id="29" style="edgeStyle=orthogonalEdgeStyle;html=1;entryX=0.5;entryY=0;entryDx=0;entryDy=0;rounded=0;curved=0;strokeColor=light-dark(#000000,#000000);exitX=0.5;exitY=1;exitDx=0;exitDy=0;" edge="1" parent="1" source="20" target="26">
                    <mxGeometry relative="1" as="geometry">
                        <mxPoint x="260" y="140" as="sourcePoint"/>
                        <Array as="points">
                            <mxPoint x="300" y="170"/>
                            <mxPoint x="300" y="170"/>
                        </Array>
                    </mxGeometry>
                </mxCell>
                <mxCell id="14" value="id: &lt;font style=&quot;color: light-dark(rgb(0, 0, 0), rgb(102, 51, 0));&quot; face=&quot;Courier New&quot;&gt;aaaabbbb-cc...&lt;/font&gt;" style="text;html=1;align=left;verticalAlign=middle;whiteSpace=wrap;rounded=0;fontColor=light-dark(#000000,#000000);" vertex="1" parent="1">
                    <mxGeometry x="430" y="85.6" width="120" height="30" as="geometry"/>
                </mxCell>
                <mxCell id="38" style="edgeStyle=orthogonalEdgeStyle;html=1;entryX=0.75;entryY=0;entryDx=0;entryDy=0;rounded=0;curved=0;strokeColor=light-dark(#000000,#000000);exitX=0.5;exitY=1;exitDx=0;exitDy=0;" edge="1" parent="1" source="11" target="26">
                    <mxGeometry relative="1" as="geometry">
                        <mxPoint x="509" y="100" as="sourcePoint"/>
                        <Array as="points">
                            <mxPoint x="490" y="160"/>
                            <mxPoint x="334" y="160"/>
                            <mxPoint x="334" y="188"/>
                        </Array>
                    </mxGeometry>
                </mxCell>
                <mxCell id="20" value="&lt;font style=&quot;color: light-dark(rgb(0, 0, 0), rgb(0, 0, 0));&quot; face=&quot;Courier New&quot;&gt;ClusterSecretStore&lt;br&gt;&lt;/font&gt;resources" style="rounded=1;whiteSpace=wrap;html=1;fillColor=#647687;fontColor=#ffffff;strokeColor=#314354;verticalAlign=top;container=0;" vertex="1" parent="1">
                    <mxGeometry x="231.25" y="42.5" width="137.5" height="47.5" as="geometry"/>
                </mxCell>
                <mxCell id="30" style="edgeStyle=none;html=1;exitX=0;exitY=0.5;exitDx=0;exitDy=0;entryX=1;entryY=0.5;entryDx=0;entryDy=0;strokeColor=light-dark(#000000,#000000);startArrow=classic;startFill=1;" edge="1" parent="1" source="26" target="16">
                    <mxGeometry relative="1" as="geometry"/>
                </mxCell>
                <mxCell id="31" style="edgeStyle=orthogonalEdgeStyle;html=1;exitX=1;exitY=0.5;exitDx=0;exitDy=0;entryX=0;entryY=0.75;entryDx=0;entryDy=0;rounded=0;strokeColor=light-dark(#000000,#000000);" edge="1" parent="1" source="26" target="24">
                    <mxGeometry relative="1" as="geometry"/>
                </mxCell>
                <mxCell id="26" value="&lt;font style=&quot;color: light-dark(rgb(0, 0, 0), rgb(0, 0, 0));&quot; face=&quot;Helvetica&quot;&gt;ESO pods&lt;/font&gt;" style="rounded=1;whiteSpace=wrap;html=1;fillColor=#008a00;fontColor=#ffffff;strokeColor=#005700;verticalAlign=top;container=0;" vertex="1" parent="1">
                    <mxGeometry x="231.25" y="187.5" width="137.5" height="35" as="geometry"/>
                </mxCell>
                <mxCell id="34" value="" style="group" vertex="1" connectable="0" parent="1">
                    <mxGeometry x="530" y="130" width="130" height="100" as="geometry"/>
                </mxCell>
                <mxCell id="24" value="secretA&lt;br&gt;&lt;font style=&quot;color: light-dark(rgb(0, 0, 0), rgb(0, 0, 0));&quot; face=&quot;Courier New&quot;&gt;secret&lt;/font&gt; resource" style="rounded=1;whiteSpace=wrap;html=1;fillColor=#0050ef;fontColor=#ffffff;strokeColor=#001DBC;verticalAlign=top;" vertex="1" parent="34">
                    <mxGeometry width="130" height="100" as="geometry"/>
                </mxCell>
                <mxCell id="32" value="&lt;font style=&quot;&quot;&gt;&lt;font style=&quot;color: light-dark(rgb(0, 0, 0), rgb(0, 0, 0));&quot;&gt;username:&amp;nbsp;&lt;/font&gt;&lt;font style=&quot;color: light-dark(rgb(0, 0, 0), rgb(0, 0, 0)); scrollbar-color: rgb(75, 75, 75) rgb(27, 29, 30);&quot; face=&quot;Courier New&quot;&gt;admin&lt;/font&gt;&lt;br style=&quot;scrollbar-color: rgb(75, 75, 75) rgb(27, 29, 30);&quot;&gt;&lt;span style=&quot;color: light-dark(rgb(0, 0, 0), rgb(0, 0, 0));&quot;&gt;password:&lt;/span&gt;&lt;font style=&quot;scrollbar-color: rgb(75, 75, 75) rgb(27, 29, 30);&quot;&gt;&lt;font style=&quot;scrollbar-color: rgb(75, 75, 75) rgb(27, 29, 30);&quot; face=&quot;Courier New&quot;&gt;&lt;font style=&quot;color: light-dark(rgb(0, 0, 0), rgb(0, 0, 0));&quot;&gt;&amp;nbsp;&lt;/font&gt;&lt;font style=&quot;scrollbar-color: rgb(75, 75, 75) rgb(27, 29, 30); color: light-dark(rgb(0, 0, 0), rgb(0, 0, 0));&quot;&gt;p@ssw0rd!&lt;/font&gt;&lt;/font&gt;&lt;font style=&quot;scrollbar-color: rgb(75, 75, 75) rgb(27, 29, 30);&quot;&gt;&lt;br style=&quot;scrollbar-color: rgb(75, 75, 75) rgb(27, 29, 30);&quot;&gt;&lt;font style=&quot;scrollbar-color: rgb(75, 75, 75) rgb(27, 29, 30); color: light-dark(rgb(0, 0, 0), rgb(0, 0, 0));&quot; face=&quot;Helvetica&quot;&gt;url:&lt;/font&gt;&lt;/font&gt;&lt;/font&gt;&lt;font style=&quot;scrollbar-color: rgb(75, 75, 75) rgb(27, 29, 30); color: light-dark(rgb(0, 0, 0), rgb(0, 0, 0));&quot; face=&quot;Courier New&quot;&gt;&amp;nbsp;&lt;/font&gt;&lt;font style=&quot;color: light-dark(rgb(0, 0, 0), rgb(0, 0, 0)); scrollbar-color: rgb(75, 75, 75) rgb(27, 29, 30);&quot; face=&quot;Courier New&quot;&gt;my.domain.tld&lt;/font&gt;&lt;/font&gt;&lt;div&gt;&lt;br&gt;&lt;/div&gt;" style="text;html=1;align=left;verticalAlign=middle;whiteSpace=wrap;rounded=0;fontColor=light-dark(#000000,#000000);" vertex="1" parent="34">
                    <mxGeometry y="55.6" width="60" height="30" as="geometry"/>
                </mxCell>
                <mxCell id="36" style="edgeStyle=none;html=1;exitX=0.5;exitY=1;exitDx=0;exitDy=0;entryX=0.5;entryY=0;entryDx=0;entryDy=0;strokeColor=light-dark(#000000,#000000);startArrow=classic;startFill=1;endArrow=none;endFill=0;" edge="1" parent="1" source="35" target="24">
                    <mxGeometry relative="1" as="geometry"/>
                </mxCell>
                <mxCell id="35" value="&lt;font style=&quot;color: light-dark(rgb(0, 0, 0), rgb(0, 0, 0));&quot; face=&quot;Helvetica&quot;&gt;Application pods&lt;/font&gt;" style="rounded=1;whiteSpace=wrap;html=1;fillColor=#008a00;fontColor=#ffffff;strokeColor=#005700;verticalAlign=top;container=0;" vertex="1" parent="1">
                    <mxGeometry x="560" y="40" width="70" height="40" as="geometry"/>
                </mxCell>
            </root>
        </mxGraphModel>
    </diagram>
</mxfile>